<svg id="Layer_1" data-name="Layer 1" xmlns="http://www.w3.org/2000/svg" viewBox="0 0 68.7 87.13"><g id="Symbols"><g id="Regular-S"><path d="M12.5,87.11H56.3q6.24,0,9.35-3.08t3.1-9.23V37.26q0-6.16-3.1-9.23T56.3,25H45.8V32H56.2a5.6,5.6,0,0,1,4.08,1.39,5.54,5.54,0,0,1,1.44,4.18V74.46a5.54,5.54,0,0,1-1.44,4.18A5.68,5.68,0,0,1,56.2,80H12.5a5.68,5.68,0,0,1-4-1.39,5.54,5.54,0,0,1-1.44-4.18V37.64a5,5,0,0,1,4.36-5.56,4.92,4.92,0,0,1,1.15,0H23V25H12.5q-6.21,0-9.33,3.08T.05,37.3V74.84q0,6.16,3.12,9.23T12.5,87.11ZM34.37,56.84a3.47,3.47,0,0,0,2.47-1,3.21,3.21,0,0,0,1-2.41V15.33l-.3-5.86,2.06,2.25L45,17.53a2.94,2.94,0,0,0,2.34,1,3.22,3.22,0,0,0,2.29-.85,2.84,2.84,0,0,0,.93-2.17,3.17,3.17,0,0,0-1.07-2.3L36.86,1.15A3.78,3.78,0,0,0,35.62.22,3.61,3.61,0,0,0,34.32,0a3.3,3.3,0,0,0-1.24.24,4.3,4.3,0,0,0-1.3.93L19.19,13.21a3.15,3.15,0,0,0-1,2.3,2.86,2.86,0,0,0,.88,2.17,3.13,3.13,0,0,0,2.29.85,3.1,3.1,0,0,0,2.4-1l5.37-5.81,2.05-2.25-.3,5.86V53.42a3.2,3.2,0,0,0,1.05,2.41,3.4,3.4,0,0,0,2.39,1Z" transform="translate(-0.05 0.02)" style="fill:#fff"/></g></g></svg>